<?xml version="1.0" standalone="no"?>
<!DOCTYPE svg PUBLIC "-//W3C//DTD SVG 20010904//EN"
 "http://www.w3.org/TR/2001/REC-SVG-20010904/DTD/svg10.dtd">
<svg version="1.0" xmlns="http://www.w3.org/2000/svg"
 width="390.000000pt" height="319.000000pt" viewBox="0 0 390.000000 319.000000"
 preserveAspectRatio="xMidYMid meet">

<g transform="translate(0.000000,319.000000) scale(0.100000,-0.100000)"
fill="#ffffff" stroke="none">
<path d="M1830 2681 c-63 -9 -84 -24 -45 -32 30 -6 30 -6 5 -11 -14 -3 -65
-14 -115 -23 -254 -48 -473 -179 -623 -372 l-33 -42 30 -15 29 -15 41 53 c197
255 531 401 878 384 191 -10 380 -68 521 -161 91 -60 218 -181 267 -256 33
-49 45 -60 68 -61 33 0 33 2 0 59 -160 276 -486 468 -826 486 -62 3 -121 7
-132 9 -11 2 -40 0 -65 -3z"/>
<path d="M850 2286 c0 -33 33 -60 57 -47 59 31 50 63 -17 68 -36 2 -40 0 -40
-21z"/>
<path d="M3056 2192 c-61 -14 -57 -55 8 -89 29 -15 31 -15 53 13 31 38 27 78
-7 81 -14 0 -38 -2 -54 -5z"/>
<path d="M887 2159 c-10 -6 -25 -8 -33 -5 -25 9 -54 -12 -54 -40 0 -18 12 -32
48 -55 l47 -30 32 38 c37 43 42 77 14 93 -24 12 -31 12 -54 -1z"/>
<path d="M1519 2091 c-116 -24 -241 -128 -303 -251 -44 -88 -48 -145 -13 -184
27 -32 87 -47 87 -22 0 11 -9 16 -28 16 -105 0 -68 172 65 306 80 80 153 117
236 118 41 1 75 -5 100 -17 51 -25 112 -90 126 -136 27 -92 6 -265 -50 -398
-18 -45 -27 -55 -58 -63 -40 -12 -201 -48 -244 -55 -15 -2 -33 -7 -39 -11 -8
-5 -10 37 -5 162 6 160 18 249 48 356 10 38 10 51 1 60 -35 35 -77 -92 -94
-289 l-12 -133 -42 0 c-23 0 -109 16 -191 37 -242 59 -364 50 -447 -33 -33
-34 -66 -95 -66 -124 0 -32 13 -23 45 31 35 61 101 115 159 130 59 16 160 5
328 -35 80 -20 162 -36 181 -36 l35 0 4 -80 c2 -53 -1 -80 -8 -80 -20 0 -79
-66 -92 -103 -11 -30 -10 -41 2 -71 22 -52 71 -63 161 -35 119 37 227 119 308
235 47 68 56 75 116 99 81 32 165 86 187 120 23 35 7 46 -18 12 -11 -15 -39
-40 -61 -55 -41 -27 -147 -75 -153 -69 -2 2 8 31 22 66 95 235 53 429 -111
513 -37 20 -128 29 -176 19z m-162 -688 c-2 -21 -4 -4 -4 37 0 41 2 58 4 38 2
-21 2 -55 0 -75z m322 0 c-12 -21 -28 -45 -36 -54 -16 -19 -17 -33 -1 -23 7 5
8 3 4 -5 -5 -7 -11 -10 -14 -7 -9 9 -42 -26 -35 -37 3 -5 1 -7 -5 -3 -6 3 -19
-4 -29 -16 -26 -32 -58 -51 -155 -92 -36 -15 -124 -12 -145 6 -31 25 -7 108
43 147 36 28 42 27 47 -11 3 -25 4 -23 3 7 -1 22 4 51 11 65 14 27 13 31 17
-102 1 -13 -4 -22 -11 -21 -7 2 -13 -2 -13 -8 0 -6 8 -9 18 -7 14 3 17 15 17
67 0 75 -11 68 165 105 152 32 146 33 119 -11z"/>
<path d="M2979 2006 c-9 -20 -7 -32 16 -70 15 -26 33 -45 39 -43 78 32 95 41
100 54 11 27 -4 53 -32 59 -15 3 -35 9 -44 15 -33 17 -68 11 -79 -15z"/>
<path d="M770 1962 c-29 -23 -19 -60 19 -73 l28 -10 -20 -41 c-20 -40 -20 -41
-1 -55 18 -13 19 -11 26 33 4 25 9 48 12 51 9 9 38 -6 31 -17 -9 -14 4 -70 16
-70 16 0 23 32 10 51 -10 17 -8 19 12 19 13 0 32 9 42 20 15 17 16 24 7 45
-14 30 -42 32 -67 5 -26 -28 -55 -26 -55 4 0 20 -22 56 -35 56 -1 0 -13 -8
-25 -18z m43 -34 c7 -25 3 -33 -12 -23 -13 8 -15 45 -2 45 5 0 11 -10 14 -22z
m117 -32 c-19 -18 -60 -30 -60 -18 0 10 38 30 60 31 13 1 13 -1 0 -13z"/>
<path d="M2225 1926 c-58 -26 -90 -84 -79 -145 5 -27 23 -52 70 -98 35 -33 64
-63 64 -66 0 -2 -11 -2 -24 0 -35 7 -124 -37 -169 -83 -125 -129 -128 -354 -8
-474 70 -69 144 -86 248 -55 58 17 119 57 115 74 -1 7 2 9 9 6 24 -15 301 297
282 316 -12 12 -109 -95 -107 -117 1 -8 -2 -12 -6 -9 -12 7 -61 -55 -54 -67 4
-6 3 -8 -3 -5 -5 3 -44 -30 -86 -73 -43 -44 -77 -77 -77 -75 0 3 -14 -2 -31
-11 -34 -17 -119 -22 -159 -10 -24 8 -25 8 -5 -8 20 -16 20 -17 -5 -14 -17 2
-25 9 -24 21 2 20 -56 83 -71 78 -5 -1 -7 0 -3 4 4 4 -1 28 -11 54 -39 99 -34
205 14 301 40 78 104 120 185 120 22 0 40 3 40 6 0 4 -29 37 -65 75 -69 73
-81 99 -71 152 10 55 46 80 119 85 56 3 67 0 110 -28 43 -27 48 -34 43 -56 -5
-19 -3 -25 6 -22 24 8 20 47 -7 72 -65 60 -170 83 -240 52z m-85 -862 c0 -8 5
-12 10 -9 12 8 13 -5 1 -24 -7 -11 -10 -11 -17 0 -11 18 -13 49 -2 49 4 0 8
-7 8 -16z"/>
<path d="M3047 1802 c-23 -25 -21 -48 5 -66 l21 -15 -22 -18 c-15 -12 -20 -24
-16 -35 6 -16 11 -14 43 12 54 44 66 40 58 -19 -6 -47 -5 -49 15 -44 19 5 21
11 16 49 -4 42 -3 44 22 44 49 0 71 36 43 70 -20 25 -44 19 -62 -14 -16 -31
-43 -23 -61 17 -17 38 -39 45 -62 19z m43 -33 c7 -11 9 -24 5 -27 -7 -7 -35
25 -35 40 0 16 19 8 30 -13z m120 -14 c-7 -8 -17 -15 -22 -15 -6 0 -5 7 2 15
7 8 17 15 22 15 6 0 5 -7 -2 -15z"/>
<path d="M2915 1532 c-89 -31 -193 -101 -181 -121 4 -6 33 8 70 33 137 94 267
117 358 63 52 -30 115 -108 141 -172 13 -33 16 -36 16 -15 2 69 -85 181 -165
215 -50 21 -175 19 -239 -3z"/>
<path d="M841 1400 c-8 -5 -11 -16 -6 -30 4 -14 3 -20 -3 -16 -8 5 -25 -28
-23 -46 0 -3 -7 -9 -15 -12 -12 -4 -15 -2 -10 9 3 8 0 15 -7 15 -7 1 -21 15
-32 33 -26 41 -58 46 -80 14 -12 -18 -13 -31 -6 -50 12 -30 41 -41 87 -32 l34
6 0 -61 c0 -55 -2 -60 -22 -61 -22 0 -22 -1 -3 -9 38 -16 41 -12 37 55 -5 77
3 81 63 33 33 -26 36 -27 17 -6 -18 19 -20 27 -10 31 7 2 5 3 -4 2 -10 -2 -21
1 -24 6 -3 5 8 9 24 9 56 0 95 69 56 100 -18 16 -56 21 -73 10z m24 -10 c-3
-5 -11 -10 -16 -10 -6 0 -7 5 -4 10 3 6 11 10 16 10 6 0 7 -4 4 -10z m35 -13
c0 -7 -7 -23 -17 -36 -12 -18 -13 -23 -2 -19 8 2 20 15 26 29 7 13 13 18 13
11 0 -33 -21 -51 -55 -50 -19 1 -35 3 -35 6 0 3 11 20 26 39 26 34 44 43 44
20z m-178 -16 c-10 -6 -6 -14 17 -34 l31 -26 -34 -7 c-44 -8 -57 1 -53 32 3
25 22 44 42 44 6 0 4 -4 -3 -9z"/>
<path d="M700 1310 c8 -5 20 -10 25 -10 6 0 3 5 -5 10 -8 5 -19 10 -25 10 -5
0 -3 -5 5 -10z"/>
<path d="M2930 1315 c-23 -27 -15 -67 19 -95 l31 -26 -30 -22 c-16 -12 -37
-36 -46 -53 -14 -29 -14 -32 3 -45 26 -20 31 -18 39 18 8 37 32 78 45 78 5 0
9 -29 9 -65 0 -66 7 -76 39 -56 8 6 12 21 9 43 l-4 34 45 -1 c40 0 47 3 59 29
11 21 12 34 3 52 -13 29 -44 31 -88 5 -29 -19 -32 -19 -47 -2 -13 14 -13 23
-4 54 9 28 8 40 -2 52 -16 19 -64 20 -80 0z m60 -45 c0 -16 -4 -32 -10 -35
-12 -7 -24 39 -16 61 9 23 26 7 26 -26z m30 -74 c0 -11 -19 -15 -25 -6 -3 5 1
10 9 10 9 0 16 -2 16 -4z m110 -21 c-14 -16 -85 -21 -95 -6 -6 12 17 18 69 20
33 1 37 -1 26 -14z"/>
<path d="M903 1254 c17 -20 17 -23 2 -38 -9 -9 -12 -16 -7 -16 5 0 15 7 22 16
11 13 10 19 -10 37 -23 21 -23 21 -7 1z"/>
<path d="M751 1234 c0 -11 3 -14 6 -6 3 7 2 16 -1 19 -3 4 -6 -2 -5 -13z"/>
<path d="M893 1104 c21 -7 22 -18 2 -34 -8 -7 -15 -16 -15 -21 0 -5 7 -9 15
-9 8 0 15 -7 15 -15 0 -8 -4 -15 -10 -15 -5 0 -3 -19 6 -42 8 -22 12 -43 10
-45 -7 -7 -46 120 -46 149 0 23 -4 28 -22 27 -13 0 -18 -3 -12 -5 6 -2 8 -19
6 -36 -4 -23 -2 -29 8 -23 9 6 11 4 6 -4 -12 -18 3 -83 16 -75 7 4 8 3 4 -5
-9 -14 12 -81 25 -81 6 0 7 -4 4 -10 -22 -36 184 -309 285 -377 14 -9 -10 16
-53 56 -86 81 -117 121 -122 154 -2 12 -6 36 -10 52 l-6 30 26 -30 c15 -16 23
-24 19 -16 -5 9 -3 12 4 7 7 -4 12 -16 12 -27 0 -10 5 -19 10 -19 6 0 10 -7
10 -15 0 -8 5 -15 12 -15 7 0 40 -26 73 -57 33 -32 44 -40 24 -18 -20 22 -46
51 -58 65 -79 88 -163 252 -198 386 -15 54 -23 69 -38 71 -16 1 -16 1 -2 -3z
m40 -214 c3 -11 1 -18 -4 -14 -5 3 -9 12 -9 20 0 20 7 17 13 -6z m46 -92 c-9
-19 -9 -21 2 -10 25 23 33 12 9 -13 -15 -16 -26 -21 -30 -14 -8 12 10 59 23
59 4 0 2 -10 -4 -22z"/>
<path d="M2835 868 c-50 -95 -107 -172 -194 -258 -47 -46 -67 -70 -44 -52 24
19 45 38 49 43 3 5 10 7 15 4 5 -4 9 -1 9 5 0 16 66 76 78 72 15 -5 -8 -42
-26 -42 -7 0 -11 -4 -8 -9 11 -17 -131 -138 -237 -202 -37 -23 -65 -44 -63
-47 8 -8 110 57 194 124 91 71 177 168 166 185 -4 7 -3 9 3 6 14 -9 53 43 97
132 30 58 35 76 24 82 -25 16 -36 9 -63 -43z m-72 -158 c-3 -12 -8 -19 -11
-16 -5 6 5 36 12 36 2 0 2 -9 -1 -20z"/>
<path d="M3195 654 c-9 -15 -12 -23 -6 -20 11 7 35 46 28 46 -3 0 -12 -12 -22
-26z"/>
<path d="M3070 511 c-90 -93 -144 -139 -290 -244 -20 -14 -21 -16 -3 -7 47 22
222 162 283 226 85 90 125 134 119 134 -2 -1 -51 -50 -109 -109z"/>
<path d="M1260 515 c14 -17 110 -79 114 -74 1 2 -26 23 -62 46 -35 23 -59 36
-52 28z"/>
<path d="M2474 481 c-149 -101 -310 -150 -529 -160 -116 -5 -141 -8 -109 -14
104 -20 390 30 529 93 79 35 168 90 161 98 -3 3 2 11 12 18 40 31 2 10 -64
-35z"/>
<path d="M2350 360 c-19 -11 -32 -19 -29 -20 11 0 79 30 79 35 0 9 -14 5 -50
-15z"/>
<path d="M2289 336 c-3 -3 -43 -16 -89 -30 -47 -14 -77 -25 -68 -25 20 -1 178
48 178 54 0 6 -15 6 -21 1z"/>
<path d="M1538 303 c7 -3 16 -2 19 1 4 3 -2 6 -13 5 -11 0 -14 -3 -6 -6z"/>
<path d="M1648 303 c7 -3 16 -2 19 1 4 3 -2 6 -13 5 -11 0 -14 -3 -6 -6z"/>
<path d="M1578 293 c7 -3 16 -2 19 1 4 3 -2 6 -13 5 -11 0 -14 -3 -6 -6z"/>
<path d="M1698 293 c6 -2 18 -2 25 0 6 3 1 5 -13 5 -14 0 -19 -2 -12 -5z"/>
<path d="M1618 283 c6 -2 18 -2 25 0 6 3 1 5 -13 5 -14 0 -19 -2 -12 -5z"/>
<path d="M1828 283 c23 -2 61 -2 85 0 23 2 4 4 -43 4 -47 0 -66 -2 -42 -4z"/>
<path d="M1685 271 c31 -9 102 -14 94 -7 -2 2 -31 6 -64 9 -39 4 -50 3 -30 -2z"/>
<path d="M2078 273 c6 -2 18 -2 25 0 6 3 1 5 -13 5 -14 0 -19 -2 -12 -5z"/>
<path d="M1998 263 c12 -2 32 -2 45 0 12 2 2 4 -23 4 -25 0 -35 -2 -22 -4z"/>
<path d="M1847 253 c18 -2 50 -2 70 0 21 2 7 4 -32 4 -38 0 -55 -2 -38 -4z"/>
<path d="M2690 221 c-25 -15 -86 -45 -137 -66 -95 -41 -118 -57 -43 -30 55 19
229 106 236 117 9 14 -10 7 -56 -21z"/>
<path d="M1210 160 c8 -5 20 -10 25 -10 6 0 3 5 -5 10 -8 5 -19 10 -25 10 -5
0 -3 -5 5 -10z"/>
<path d="M1260 140 c8 -5 20 -10 25 -10 6 0 3 5 -5 10 -8 5 -19 10 -25 10 -5
0 -3 -5 5 -10z"/>
<path d="M1310 120 c8 -5 20 -10 25 -10 6 0 3 5 -5 10 -8 5 -19 10 -25 10 -5
0 -3 -5 5 -10z"/>
<path d="M2415 100 c-13 -6 -15 -9 -5 -9 8 0 22 4 30 9 18 12 2 12 -25 0z"/>
<path d="M2345 80 c-13 -5 -14 -9 -5 -9 8 0 24 4 35 9 13 5 14 9 5 9 -8 0 -24
-4 -35 -9z"/>
<path d="M1488 63 c7 -3 16 -2 19 1 4 3 -2 6 -13 5 -11 0 -14 -3 -6 -6z"/>
<path d="M2270 60 c-20 -6 -21 -8 -5 -8 11 0 29 3 40 8 25 11 -1 11 -35 0z"/>
<path d="M1528 53 c6 -2 18 -2 25 0 6 3 1 5 -13 5 -14 0 -19 -2 -12 -5z"/>
<path d="M1578 43 c6 -2 18 -2 25 0 6 3 1 5 -13 5 -14 0 -19 -2 -12 -5z"/>
<path d="M1633 33 c9 -2 23 -2 30 0 6 3 -1 5 -18 5 -16 0 -22 -2 -12 -5z"/>
<path d="M2143 33 c9 -2 25 -2 35 0 9 3 1 5 -18 5 -19 0 -27 -2 -17 -5z"/>
<path d="M1713 23 c9 -2 23 -2 30 0 6 3 -1 5 -18 5 -16 0 -22 -2 -12 -5z"/>
<path d="M1895 20 l-120 -6 115 -1 c63 -1 140 2 170 7 l55 7 -50 0 c-27 -1
-104 -4 -170 -7z"/>
</g>
</svg>
